<?xml version="1.0" encoding="UTF-8"?>
<!DOCTYPE svg PUBLIC "-//W3C//DTD SVG 1.1//EN" "http://www.w3.org/Graphics/SVG/1.1/DTD/svg11.dtd">
<svg xmlns="http://www.w3.org/2000/svg" version="1.1" width="378px" height="196px" style="shape-rendering:geometricPrecision; text-rendering:geometricPrecision; image-rendering:optimizeQuality; fill-rule:evenodd; clip-rule:evenodd" xmlns:xlink="http://www.w3.org/1999/xlink">
<g><path style="opacity:0.375" fill="#616c75" d="M 209.5,16.5 C 208.373,15.8783 207.373,15.045 206.5,14C 194.5,13.3333 182.5,13.3333 170.5,14C 171.582,15.3297 172.249,16.8297 172.5,18.5C 168.316,15.3612 168.65,13.0279 173.5,11.5C 184.132,11.6864 194.798,11.8531 205.5,12C 207.751,12.7475 209.084,14.2475 209.5,16.5 Z"/></g>
<g><path style="opacity:0.394" fill="#636e76" d="M 263.5,15.5 C 257.872,14.1707 251.872,13.504 245.5,13.5C 239.5,13.6667 233.5,13.8333 227.5,14C 226.267,15.6667 224.933,17.1667 223.5,18.5C 223.84,15.3252 225.507,13.1585 228.5,12C 239.766,11.6397 250.933,11.473 262,11.5C 264.21,12.4903 264.71,13.8236 263.5,15.5 Z"/></g>
<g><path style="opacity:0.509" fill="#647078" d="M 360.5,13.5 C 348.087,13.1874 335.753,13.5208 323.5,14.5C 323.577,13.2502 324.244,12.4169 325.5,12C 336.167,11.3333 346.833,11.3333 357.5,12C 359.506,12.0826 360.506,12.5826 360.5,13.5 Z"/></g>
<g><path style="opacity:1" fill="#f7f8f8" d="M 116.5,23.5 C 117.338,23.8417 117.672,24.5084 117.5,25.5C 117.427,27.0269 118.094,28.0269 119.5,28.5C 120.338,28.8417 120.672,29.5084 120.5,30.5C 120.427,32.0269 121.094,33.0269 122.5,33.5C 122.427,35.0269 123.094,36.0269 124.5,36.5C 125.338,36.8417 125.672,37.5084 125.5,38.5C 125.427,40.0269 126.094,41.0269 127.5,41.5C 128.338,41.8417 128.672,42.5084 128.5,43.5C 128.427,45.0269 129.094,46.0269 130.5,46.5C 130.427,48.0269 131.094,49.0269 132.5,49.5C 132.427,51.0269 133.094,52.0269 134.5,52.5C 134.427,54.0269 135.094,55.0269 136.5,55.5C 137.89,56.8993 138.89,58.5659 139.5,60.5C 139.427,62.0269 140.094,63.0269 141.5,63.5C 142.338,63.8417 142.672,64.5084 142.5,65.5C 142.427,67.0269 143.094,68.0269 144.5,68.5C 144.427,70.0269 145.094,71.0269 146.5,71.5C 147.338,71.8417 147.672,72.5084 147.5,73.5C 147.427,75.0269 148.094,76.0269 149.5,76.5C 149.427,78.0269 150.094,79.0269 151.5,79.5C 152.338,79.8417 152.672,80.5084 152.5,81.5C 152.427,83.0269 153.094,84.0269 154.5,84.5C 154.427,86.0269 155.094,87.0269 156.5,87.5C 156.75,89.674 157.75,91.3406 159.5,92.5C 159.427,94.0269 160.094,95.0269 161.5,95.5C 162.338,95.8417 162.672,96.5084 162.5,97.5C 162.427,99.0269 163.094,100.027 164.5,100.5C 165.338,100.842 165.672,101.508 165.5,102.5C 165.427,104.027 166.094,105.027 167.5,105.5C 168.86,108.015 169.86,107.682 170.5,104.5C 172.408,103.514 173.408,101.848 173.5,99.5C 173.328,98.5084 173.662,97.8417 174.5,97.5C 175.906,97.0269 176.573,96.0269 176.5,94.5C 176.328,93.5084 176.662,92.8417 177.5,92.5C 178.906,92.0269 179.573,91.0269 179.5,89.5C 180.906,89.0269 181.573,88.0269 181.5,86.5C 181.328,85.5084 181.662,84.8417 182.5,84.5C 183.906,84.0269 184.573,83.0269 184.5,81.5C 185.906,81.0269 186.573,80.0269 186.5,78.5C 186.328,77.5084 186.662,76.8417 187.5,76.5C 188.906,76.0269 189.573,75.0269 189.5,73.5C 190.906,73.0269 191.573,72.0269 191.5,70.5C 191.328,69.5084 191.662,68.8417 192.5,68.5C 193.906,68.0269 194.573,67.0269 194.5,65.5C 194.328,64.5084 194.662,63.8417 195.5,63.5C 198.478,61.6523 198.812,59.6523 196.5,57.5C 195.11,56.1007 194.11,54.4341 193.5,52.5C 193.573,50.9731 192.906,49.9731 191.5,49.5C 188.665,45.8362 186.332,41.8362 184.5,37.5C 184.414,36.5041 184.748,35.6708 185.5,35C 183.804,33.8236 182.138,32.657 180.5,31.5C 180.13,28.733 178.796,26.733 176.5,25.5C 174.917,23.3374 173.584,21.0041 172.5,18.5C 172.249,16.8297 171.582,15.3297 170.5,14C 182.5,13.3333 194.5,13.3333 206.5,14C 207.373,15.045 208.373,15.8783 209.5,16.5C 210.674,17.5137 211.34,18.847 211.5,20.5C 211.427,22.0269 212.094,23.0269 213.5,23.5C 214.338,23.8417 214.672,24.5084 214.5,25.5C 215.679,29.8081 217.013,30.1415 218.5,26.5C 219.906,26.0269 220.573,25.0269 220.5,23.5C 221.906,23.0269 222.573,22.0269 222.5,20.5C 222.328,19.5084 222.662,18.8417 223.5,18.5C 224.933,17.1667 226.267,15.6667 227.5,14C 233.5,13.8333 239.5,13.6667 245.5,13.5C 251.872,13.504 257.872,14.1707 263.5,15.5C 261.75,16.6594 260.75,18.326 260.5,20.5C 259.094,20.9731 258.427,21.9731 258.5,23.5C 258.672,24.4916 258.338,25.1583 257.5,25.5C 256.094,25.9731 255.427,26.9731 255.5,28.5C 254.094,28.9731 253.427,29.9731 253.5,31.5C 253.672,32.4916 253.338,33.1583 252.5,33.5C 251.094,33.9731 250.427,34.9731 250.5,36.5C 249.094,36.9731 248.427,37.9731 248.5,39.5C 248.672,40.4916 248.338,41.1583 247.5,41.5C 246.094,41.9731 245.427,42.9731 245.5,44.5C 245.672,45.4916 245.338,46.1583 244.5,46.5C 243.094,46.9731 242.427,47.9731 242.5,49.5C 241.094,49.9731 240.427,50.9731 240.5,52.5C 240.672,53.4916 240.338,54.1583 239.5,54.5C 238.094,54.9731 237.427,55.9731 237.5,57.5C 235.618,58.221 235.285,59.221 236.5,60.5C 236.427,62.0269 237.094,63.0269 238.5,63.5C 238.427,65.0269 239.094,66.0269 240.5,66.5C 241.674,67.5137 242.34,68.847 242.5,70.5C 242.427,72.0269 243.094,73.0269 244.5,73.5C 244.427,75.0269 245.094,76.0269 246.5,76.5C 247.338,76.8417 247.672,77.5084 247.5,78.5C 247.427,80.0269 248.094,81.0269 249.5,81.5C 249.427,83.0269 250.094,84.0269 251.5,84.5C 252.338,84.8417 252.672,85.5084 252.5,86.5C 252.427,88.0269 253.094,89.0269 254.5,89.5C 254.427,91.0269 255.094,92.0269 256.5,92.5C 256.427,94.0269 257.094,95.0269 258.5,95.5C 258.427,97.0269 259.094,98.0269 260.5,98.5C 261.674,99.5137 262.34,100.847 262.5,102.5C 262.427,104.027 263.094,105.027 264.5,105.5C 265.86,108.015 266.86,107.682 267.5,104.5C 268.906,104.027 269.573,103.027 269.5,101.5C 269.328,100.508 269.662,99.8417 270.5,99.5C 271.906,99.0269 272.573,98.0269 272.5,96.5C 272.328,95.5084 272.662,94.8417 273.5,94.5C 274.906,94.0269 275.573,93.0269 275.5,91.5C 276.906,91.0269 277.573,90.0269 277.5,88.5C 277.328,87.5084 277.662,86.8417 278.5,86.5C 279.906,86.0269 280.573,85.0269 280.5,83.5C 281.906,83.0269 282.573,82.0269 282.5,80.5C 282.328,79.5084 282.662,78.8417 283.5,78.5C 284.906,78.0269 285.573,77.0269 285.5,75.5C 286.906,75.0269 287.573,74.0269 287.5,72.5C 287.328,71.5084 287.662,70.8417 288.5,70.5C 289.906,70.0269 290.573,69.0269 290.5,67.5C 290.328,66.5084 290.662,65.8417 291.5,65.5C 292.906,65.0269 293.573,64.0269 293.5,62.5C 294.906,62.0269 295.573,61.0269 295.5,59.5C 296.906,59.0269 297.573,58.0269 297.5,56.5C 297.328,55.5084 297.662,54.8417 298.5,54.5C 299.906,54.0269 300.573,53.0269 300.5,51.5C 301.906,51.0269 302.573,50.0269 302.5,48.5C 302.328,47.5084 302.662,46.8417 303.5,46.5C 304.906,46.0269 305.573,45.0269 305.5,43.5C 306.906,43.0269 307.573,42.0269 307.5,40.5C 309.408,39.5144 310.408,37.8477 310.5,35.5C 310.328,34.5084 310.662,33.8417 311.5,33.5C 312.906,33.0269 313.573,32.0269 313.5,30.5C 313.328,29.5084 313.662,28.8417 314.5,28.5C 315.906,28.0269 316.573,27.0269 316.5,25.5C 317.906,25.0269 318.573,24.0269 318.5,22.5C 318.328,21.5084 318.662,20.8417 319.5,20.5C 321.326,18.8525 322.66,16.8525 323.5,14.5C 335.753,13.5208 348.087,13.1874 360.5,13.5C 361.506,14.3957 361.506,15.0623 360.5,15.5C 359.094,15.9731 358.427,16.9731 358.5,18.5C 351.665,30.8417 344.332,42.8417 336.5,54.5C 335.094,54.9731 334.427,55.9731 334.5,57.5C 334.672,58.4916 334.338,59.1583 333.5,59.5C 332.094,59.9731 331.427,60.9731 331.5,62.5C 330.89,64.4341 329.89,66.1007 328.5,67.5C 327.094,67.9731 326.427,68.9731 326.5,70.5C 324.554,74.4394 322.221,78.106 319.5,81.5C 318.234,82.0899 316.901,82.5899 315.5,83C 316.552,84.7165 315.886,85.7165 313.5,86C 314.337,87.0113 314.67,88.1779 314.5,89.5C 313.89,91.4341 312.89,93.1007 311.5,94.5C 307.975,95.8293 305.975,97.996 305.5,101C 303.224,102.03 302.557,103.53 303.5,105.5C 302.624,106.251 301.624,106.751 300.5,107C 301.416,107.278 302.082,107.778 302.5,108.5C 301.921,111.331 300.588,113.664 298.5,115.5C 296.439,114.318 294.939,114.985 294,117.5C 293.505,119.473 293.338,121.473 293.5,123.5C 288.555,132.436 283.222,141.103 277.5,149.5C 276.094,149.973 275.427,150.973 275.5,152.5C 275.672,153.492 275.338,154.158 274.5,154.5C 273.094,154.973 272.427,155.973 272.5,157.5C 270.75,158.659 269.75,160.326 269.5,162.5C 268.094,162.973 267.427,163.973 267.5,165.5C 266.609,166.11 265.609,166.443 264.5,166.5C 264.573,164.973 263.906,163.973 262.5,163.5C 262.25,161.326 261.25,159.659 259.5,158.5C 259.573,156.973 258.906,155.973 257.5,155.5C 256.662,155.158 256.328,154.492 256.5,153.5C 256.573,151.973 255.906,150.973 254.5,150.5C 254.573,148.973 253.906,147.973 252.5,147.5C 251.662,147.158 251.328,146.492 251.5,145.5C 251.573,143.973 250.906,142.973 249.5,142.5C 248.662,142.158 248.328,141.492 248.5,140.5C 248.573,138.973 247.906,137.973 246.5,137.5C 246.573,135.973 245.906,134.973 244.5,134.5C 243.662,134.158 243.328,133.492 243.5,132.5C 243.573,130.973 242.906,129.973 241.5,129.5C 240.11,128.101 239.11,126.434 238.5,124.5C 238.573,122.973 237.906,121.973 236.5,121.5C 233.11,116.767 230.11,111.767 227.5,106.5C 227.249,104.83 226.582,103.33 225.5,102C 225.833,101.667 226.167,101.333 226.5,101C 224.627,97.5601 222.294,94.5601 219.5,92C 221.972,89.6564 221.639,89.1564 218.5,90.5C 216.632,89.3264 215.632,89.9931 215.5,92.5C 214.431,94.9687 213.098,97.3021 211.5,99.5C 209.61,99.2965 208.11,99.9632 207,101.5C 205.782,104.315 204.282,106.981 202.5,109.5C 202.863,110.183 203.196,110.85 203.5,111.5C 200.89,116.767 197.89,121.767 194.5,126.5C 189.334,128.338 187.001,132.004 187.5,137.5C 184.89,142.767 181.89,147.767 178.5,152.5C 177.094,152.973 176.427,153.973 176.5,155.5C 176.672,156.492 176.338,157.158 175.5,157.5C 174.094,157.973 173.427,158.973 173.5,160.5C 171.75,161.659 170.75,163.326 170.5,165.5C 169.167,166.833 167.833,166.833 166.5,165.5C 165.662,165.158 165.328,164.492 165.5,163.5C 165.573,161.973 164.906,160.973 163.5,160.5C 162.662,160.158 162.328,159.492 162.5,158.5C 162.262,156.596 161.262,155.262 159.5,154.5C 158.662,154.158 158.328,153.492 158.5,152.5C 158.573,150.973 157.906,149.973 156.5,149.5C 156.25,147.326 155.25,145.659 153.5,144.5C 153.573,142.973 152.906,141.973 151.5,141.5C 150.11,140.101 149.11,138.434 148.5,136.5C 148.573,134.973 147.906,133.973 146.5,133.5C 145.662,133.158 145.328,132.492 145.5,131.5C 145.573,129.973 144.906,128.973 143.5,128.5C 143.573,126.973 142.906,125.973 141.5,125.5C 140.662,125.158 140.328,124.492 140.5,123.5C 140.573,121.973 139.906,120.973 138.5,120.5C 137.11,119.101 136.11,117.434 135.5,115.5C 135.13,112.733 133.796,110.733 131.5,109.5C 129.917,107.337 128.584,105.004 127.5,102.5C 128.491,100.877 127.824,99.8773 125.5,99.5C 125.13,96.733 123.796,94.733 121.5,93.5C 119.917,91.3374 118.584,89.0041 117.5,86.5C 117.573,84.9731 116.906,83.9731 115.5,83.5C 113.355,80.5672 111.188,77.5672 109,74.5C 107.723,76.7472 106.223,78.7472 104.5,80.5C 103.85,80.1961 103.183,79.8627 102.5,79.5C 101.852,81.1492 100.852,82.4825 99.5,83.5C 98.5258,85.7427 98.1924,88.076 98.5,90.5C 97.0937,90.9731 96.427,91.9731 96.5,93.5C 95.8897,95.4341 94.8897,97.1007 93.5,98.5C 92.0937,98.9731 91.427,99.9731 91.5,101.5C 91.6716,102.492 91.3382,103.158 90.5,103.5C 89.0937,103.973 88.427,104.973 88.5,106.5C 87.0937,106.973 86.427,107.973 86.5,109.5C 86.6716,110.492 86.3382,111.158 85.5,111.5C 84.0937,111.973 83.427,112.973 83.5,114.5C 70.788,115.146 58.4547,114.48 46.5,112.5C 48.2503,111.341 49.2503,109.674 49.5,107.5C 51.9501,105.371 53.6167,102.704 54.5,99.5C 56.9501,97.3709 58.6167,94.7043 59.5,91.5C 60.9063,91.0269 61.573,90.0269 61.5,88.5C 63.2503,87.3406 64.2503,85.674 64.5,83.5C 65.9063,83.0269 66.573,82.0269 66.5,80.5C 68.2503,79.3406 69.2503,77.674 69.5,75.5C 70.9063,75.0269 71.573,74.0269 71.5,72.5C 73.2503,71.3406 74.2503,69.674 74.5,67.5C 75.9063,67.0269 76.573,66.0269 76.5,64.5C 77.9063,64.0269 78.573,63.0269 78.5,61.5C 78.3284,60.5084 78.6618,59.8417 79.5,59.5C 80.9063,59.0269 81.573,58.0269 81.5,56.5C 82.9063,56.0269 83.573,55.0269 83.5,53.5C 83.3284,52.5084 83.6618,51.8417 84.5,51.5C 85.9063,51.0269 86.573,50.0269 86.5,48.5C 87.9063,48.0269 88.573,47.0269 88.5,45.5C 88.3284,44.5084 88.6618,43.8417 89.5,43.5C 90.9063,43.0269 91.573,42.0269 91.5,40.5C 92.9063,40.0269 93.573,39.0269 93.5,37.5C 93.3284,36.5084 93.6618,35.8417 94.5,35.5C 95.9063,35.0269 96.573,34.0269 96.5,32.5C 96.3284,31.5084 96.6618,30.8417 97.5,30.5C 98.9063,30.0269 99.573,29.0269 99.5,27.5C 102.891,23.0723 106.058,18.4056 109,13.5C 111.277,17.0804 113.777,20.4137 116.5,23.5 Z"/></g>
<g><path style="opacity:0.05" fill="#1a282e" d="M 360.5,15.5 C 360.573,17.0269 359.906,18.0269 358.5,18.5C 358.427,16.9731 359.094,15.9731 360.5,15.5 Z"/></g>
<g><path style="opacity:0.204" fill="#253138" d="M 116.5,23.5 C 113.777,20.4137 111.277,17.0804 109,13.5C 106.058,18.4056 102.891,23.0723 99.5,27.5C 101.315,21.5432 104.482,16.5432 109,12.5C 110.261,12.7591 111.261,13.4258 112,14.5C 113.761,17.4111 115.261,20.4111 116.5,23.5 Z"/></g>
<g><path style="opacity:0.086" fill="#303d43" d="M 263.5,15.5 C 263.25,17.674 262.25,19.3406 260.5,20.5C 260.75,18.326 261.75,16.6594 263.5,15.5 Z"/></g>
<g><path style="opacity:0.122" fill="#303d43" d="M 323.5,14.5 C 322.66,16.8525 321.326,18.8525 319.5,20.5C 319.845,17.8021 321.178,15.8021 323.5,14.5 Z"/></g>
<g><path style="opacity:0.012" fill="#2d383e" d="M 260.5,20.5 C 260.573,22.0269 259.906,23.0269 258.5,23.5C 258.427,21.9731 259.094,20.9731 260.5,20.5 Z"/></g>
<g><path style="opacity:0.122" fill="#515c65" d="M 211.5,20.5 C 212.906,20.9731 213.573,21.9731 213.5,23.5C 212.094,23.0269 211.427,22.0269 211.5,20.5 Z"/></g>
<g><path style="opacity:0.133" fill="#4a555a" d="M 222.5,20.5 C 222.573,22.0269 221.906,23.0269 220.5,23.5C 220.427,21.9731 221.094,20.9731 222.5,20.5 Z"/></g>
<g><path style="opacity:0.133" fill="#3b4750" d="M 318.5,22.5 C 318.573,24.0269 317.906,25.0269 316.5,25.5C 316.427,23.9731 317.094,22.9731 318.5,22.5 Z"/></g>
<g><path style="opacity:0.075" fill="#39464a" d="M 220.5,23.5 C 220.573,25.0269 219.906,26.0269 218.5,26.5C 218.427,24.9731 219.094,23.9731 220.5,23.5 Z"/></g>
<g><path style="opacity:0.004" fill="#26323b" d="M 257.5,25.5 C 257.573,27.0269 256.906,28.0269 255.5,28.5C 255.427,26.9731 256.094,25.9731 257.5,25.5 Z"/></g>
<g><path style="opacity:0.106" fill="#364146" d="M 117.5,25.5 C 118.906,25.9731 119.573,26.9731 119.5,28.5C 118.094,28.0269 117.427,27.0269 117.5,25.5 Z"/></g>
<g><path style="opacity:0.098" fill="#313b44" d="M 316.5,25.5 C 316.573,27.0269 315.906,28.0269 314.5,28.5C 314.427,26.9731 315.094,25.9731 316.5,25.5 Z"/></g>
<g><path style="opacity:0.173" fill="#444d4f" d="M 214.5,25.5 C 215.705,27.1376 217.038,27.4709 218.5,26.5C 217.013,30.1415 215.679,29.8081 214.5,25.5 Z"/></g>
<g><path style="opacity:0.082" fill="#2a353d" d="M 99.5,27.5 C 99.573,29.0269 98.9063,30.0269 97.5,30.5C 97.427,28.9731 98.0937,27.9731 99.5,27.5 Z"/></g>
<g><path style="opacity:0.016" fill="#414b52" d="M 176.5,25.5 C 178.796,26.733 180.13,28.733 180.5,31.5C 178.684,29.8816 177.351,27.8816 176.5,25.5 Z"/></g>
<g><path style="opacity:0.031" fill="#2f3a3f" d="M 255.5,28.5 C 255.573,30.0269 254.906,31.0269 253.5,31.5C 253.427,29.9731 254.094,28.9731 255.5,28.5 Z"/></g>
<g><path style="opacity:0.11" fill="#444c54" d="M 120.5,30.5 C 121.906,30.9731 122.573,31.9731 122.5,33.5C 121.094,33.0269 120.427,32.0269 120.5,30.5 Z"/></g>
<g><path style="opacity:0.098" fill="#39434c" d="M 313.5,30.5 C 313.573,32.0269 312.906,33.0269 311.5,33.5C 311.427,31.9731 312.094,30.9731 313.5,30.5 Z"/></g>
<g><path style="opacity:0.869" fill="#8a9399" d="M 180.5,31.5 C 182.138,32.657 183.804,33.8236 185.5,35C 184.748,35.6708 184.414,36.5041 184.5,37.5C 182.674,35.8525 181.34,33.8525 180.5,31.5 Z"/></g>
<g><path style="opacity:0.098" fill="#363f46" d="M 96.5,32.5 C 96.573,34.0269 95.9063,35.0269 94.5,35.5C 94.427,33.9731 95.0937,32.9731 96.5,32.5 Z"/></g>
<g><path style="opacity:0.012" fill="#29353b" d="M 252.5,33.5 C 252.573,35.0269 251.906,36.0269 250.5,36.5C 250.427,34.9731 251.094,33.9731 252.5,33.5 Z"/></g>
<g><path style="opacity:0.078" fill="#313b44" d="M 122.5,33.5 C 123.906,33.9731 124.573,34.9731 124.5,36.5C 123.094,36.0269 122.427,35.0269 122.5,33.5 Z"/></g>
<g><path style="opacity:0.02" fill="#343f46" d="M 250.5,36.5 C 250.573,38.0269 249.906,39.0269 248.5,39.5C 248.427,37.9731 249.094,36.9731 250.5,36.5 Z"/></g>
<g><path style="opacity:0.114" fill="#414d52" d="M 93.5,37.5 C 93.573,39.0269 92.9063,40.0269 91.5,40.5C 91.427,38.9731 92.0937,37.9731 93.5,37.5 Z"/></g>
<g><path style="opacity:0.847" fill="#8d989f" d="M 310.5,35.5 C 310.408,37.8477 309.408,39.5144 307.5,40.5C 307.75,38.326 308.75,36.6594 310.5,35.5 Z"/></g>
<g><path style="opacity:0.106" fill="#404b4f" d="M 125.5,38.5 C 126.906,38.9731 127.573,39.9731 127.5,41.5C 126.094,41.0269 125.427,40.0269 125.5,38.5 Z"/></g>
<g><path style="opacity:0.078" fill="#364147" d="M 91.5,40.5 C 91.573,42.0269 90.9063,43.0269 89.5,43.5C 89.427,41.9731 90.0937,40.9731 91.5,40.5 Z"/></g>
<g><path style="opacity:0.157" fill="#59656c" d="M 307.5,40.5 C 307.573,42.0269 306.906,43.0269 305.5,43.5C 305.427,41.9731 306.094,40.9731 307.5,40.5 Z"/></g>
<g><path style="opacity:0.067" fill="#2c383f" d="M 247.5,41.5 C 247.573,43.0269 246.906,44.0269 245.5,44.5C 245.427,42.9731 246.094,41.9731 247.5,41.5 Z"/></g>
<g><path style="opacity:0.133" fill="#4e5960" d="M 128.5,43.5 C 129.906,43.9731 130.573,44.9731 130.5,46.5C 129.094,46.0269 128.427,45.0269 128.5,43.5 Z"/></g>
<g><path style="opacity:0.102" fill="#445159" d="M 305.5,43.5 C 305.573,45.0269 304.906,46.0269 303.5,46.5C 303.427,44.9731 304.094,43.9731 305.5,43.5 Z"/></g>
<g><path style="opacity:0.082" fill="#404e54" d="M 88.5,45.5 C 88.573,47.0269 87.9063,48.0269 86.5,48.5C 86.427,46.9731 87.0937,45.9731 88.5,45.5 Z"/></g>
<g><path style="opacity:0.106" fill="#434e52" d="M 130.5,46.5 C 131.906,46.9731 132.573,47.9731 132.5,49.5C 131.094,49.0269 130.427,48.0269 130.5,46.5 Z"/></g>
<g><path style="opacity:0.059" fill="#252f35" d="M 244.5,46.5 C 244.573,48.0269 243.906,49.0269 242.5,49.5C 242.427,47.9731 243.094,46.9731 244.5,46.5 Z"/></g>
<g><path style="opacity:0.102" fill="#344047" d="M 86.5,48.5 C 86.573,50.0269 85.9063,51.0269 84.5,51.5C 84.427,49.9731 85.0937,48.9731 86.5,48.5 Z"/></g>
<g><path style="opacity:0.012" fill="#2b383d" d="M 191.5,49.5 C 192.906,49.9731 193.573,50.9731 193.5,52.5C 192.094,52.0269 191.427,51.0269 191.5,49.5 Z"/></g>
<g><path style="opacity:0.161" fill="#525f66" d="M 302.5,48.5 C 302.573,50.0269 301.906,51.0269 300.5,51.5C 300.427,49.9731 301.094,48.9731 302.5,48.5 Z"/></g>
<g><path style="opacity:0.106" fill="#445058" d="M 132.5,49.5 C 133.906,49.9731 134.573,50.9731 134.5,52.5C 133.094,52.0269 132.427,51.0269 132.5,49.5 Z"/></g>
<g><path style="opacity:0.071" fill="#313c43" d="M 242.5,49.5 C 242.573,51.0269 241.906,52.0269 240.5,52.5C 240.427,50.9731 241.094,49.9731 242.5,49.5 Z"/></g>
<g><path style="opacity:0.129" fill="#435056" d="M 300.5,51.5 C 300.573,53.0269 299.906,54.0269 298.5,54.5C 298.427,52.9731 299.094,51.9731 300.5,51.5 Z"/></g>
<g><path style="opacity:0.094" fill="#414d53" d="M 134.5,52.5 C 135.906,52.9731 136.573,53.9731 136.5,55.5C 135.094,55.0269 134.427,54.0269 134.5,52.5 Z"/></g>
<g><path style="opacity:0.114" fill="#404c54" d="M 83.5,53.5 C 83.573,55.0269 82.9063,56.0269 81.5,56.5C 81.427,54.9731 82.0937,53.9731 83.5,53.5 Z"/></g>
<g><path style="opacity:0.012" fill="#29363c" d="M 239.5,54.5 C 239.573,56.0269 238.906,57.0269 237.5,57.5C 237.427,55.9731 238.094,54.9731 239.5,54.5 Z"/></g>
<g><path style="opacity:0.008" fill="#28373e" d="M 336.5,54.5 C 336.573,56.0269 335.906,57.0269 334.5,57.5C 334.427,55.9731 335.094,54.9731 336.5,54.5 Z"/></g>
<g><path style="opacity:0.051" fill="#333e41" d="M 81.5,56.5 C 81.573,58.0269 80.9063,59.0269 79.5,59.5C 79.427,57.9731 80.0937,56.9731 81.5,56.5 Z"/></g>
<g><path style="opacity:0.039" fill="#2e363c" d="M 196.5,57.5 C 198.812,59.6523 198.478,61.6523 195.5,63.5C 196.15,61.5648 196.483,59.5648 196.5,57.5 Z"/></g>
<g><path style="opacity:0.157" fill="#535e64" d="M 297.5,56.5 C 297.573,58.0269 296.906,59.0269 295.5,59.5C 295.427,57.9731 296.094,56.9731 297.5,56.5 Z"/></g>
<g><path style="opacity:0.224" fill="#485155" d="M 237.5,57.5 C 237.443,58.609 237.11,59.609 236.5,60.5C 235.285,59.221 235.618,58.221 237.5,57.5 Z"/></g>
<g><path style="opacity:0.004" fill="#25323a" d="M 333.5,59.5 C 333.573,61.0269 332.906,62.0269 331.5,62.5C 331.427,60.9731 332.094,59.9731 333.5,59.5 Z"/></g>
<g><path style="opacity:0.114" fill="#3d4a51" d="M 295.5,59.5 C 295.573,61.0269 294.906,62.0269 293.5,62.5C 293.427,60.9731 294.094,59.9731 295.5,59.5 Z"/></g>
<g><path style="opacity:0.082" fill="#3a474e" d="M 139.5,60.5 C 140.906,60.9731 141.573,61.9731 141.5,63.5C 140.094,63.0269 139.427,62.0269 139.5,60.5 Z"/></g>
<g><path style="opacity:0.078" fill="#38444a" d="M 236.5,60.5 C 237.906,60.9731 238.573,61.9731 238.5,63.5C 237.094,63.0269 236.427,62.0269 236.5,60.5 Z"/></g>
<g><path style="opacity:0.11" fill="#3e4a50" d="M 78.5,61.5 C 78.573,63.0269 77.9063,64.0269 76.5,64.5C 76.427,62.9731 77.0937,61.9731 78.5,61.5 Z"/></g>
<g><path style="opacity:0.098" fill="#333f45" d="M 293.5,62.5 C 293.573,64.0269 292.906,65.0269 291.5,65.5C 291.427,63.9731 292.094,62.9731 293.5,62.5 Z"/></g>
<g><path style="opacity:0.071" fill="#2e3941" d="M 238.5,63.5 C 239.906,63.9731 240.573,64.9731 240.5,66.5C 239.094,66.0269 238.427,65.0269 238.5,63.5 Z"/></g>
<g><path style="opacity:0.114" fill="#343f46" d="M 76.5,64.5 C 76.573,66.0269 75.9063,67.0269 74.5,67.5C 74.427,65.9731 75.0937,64.9731 76.5,64.5 Z"/></g>
<g><path style="opacity:0.102" fill="#3e4850" d="M 142.5,65.5 C 143.906,65.9731 144.573,66.9731 144.5,68.5C 143.094,68.0269 142.427,67.0269 142.5,65.5 Z"/></g>
<g><path style="opacity:0.067" fill="#3a464b" d="M 194.5,65.5 C 194.573,67.0269 193.906,68.0269 192.5,68.5C 192.427,66.9731 193.094,65.9731 194.5,65.5 Z"/></g>
<g><path style="opacity:0.004" fill="#26343c" d="M 328.5,67.5 C 328.573,69.0269 327.906,70.0269 326.5,70.5C 326.427,68.9731 327.094,67.9731 328.5,67.5 Z"/></g>
<g><path style="opacity:0.063" fill="#303d44" d="M 74.5,67.5 C 74.2503,69.674 73.2503,71.3406 71.5,72.5C 71.7497,70.326 72.7497,68.6594 74.5,67.5 Z"/></g>
<g><path style="opacity:0.102" fill="#3c474b" d="M 290.5,67.5 C 290.573,69.0269 289.906,70.0269 288.5,70.5C 288.427,68.9731 289.094,67.9731 290.5,67.5 Z"/></g>
<g><path style="opacity:0.086" fill="#323d45" d="M 144.5,68.5 C 145.906,68.9731 146.573,69.9731 146.5,71.5C 145.094,71.0269 144.427,70.0269 144.5,68.5 Z"/></g>
<g><path style="opacity:0.122" fill="#49555b" d="M 191.5,70.5 C 191.573,72.0269 190.906,73.0269 189.5,73.5C 189.427,71.9731 190.094,70.9731 191.5,70.5 Z"/></g>
<g><path style="opacity:0.137" fill="#5b676c" d="M 242.5,70.5 C 243.906,70.9731 244.573,71.9731 244.5,73.5C 243.094,73.0269 242.427,72.0269 242.5,70.5 Z"/></g>
<g><path style="opacity:0.078" fill="#2e3a3f" d="M 71.5,72.5 C 71.573,74.0269 70.9063,75.0269 69.5,75.5C 69.427,73.9731 70.0937,72.9731 71.5,72.5 Z"/></g>
<g><path style="opacity:0.153" fill="#4c565b" d="M 287.5,72.5 C 287.573,74.0269 286.906,75.0269 285.5,75.5C 285.427,73.9731 286.094,72.9731 287.5,72.5 Z"/></g>
<g><path style="opacity:0.102" fill="#3e4a4e" d="M 147.5,73.5 C 148.906,73.9731 149.573,74.9731 149.5,76.5C 148.094,76.0269 147.427,75.0269 147.5,73.5 Z"/></g>
<g><path style="opacity:0.09" fill="#384446" d="M 189.5,73.5 C 189.573,75.0269 188.906,76.0269 187.5,76.5C 187.427,74.9731 188.094,73.9731 189.5,73.5 Z"/></g>
<g><path style="opacity:0.098" fill="#465057" d="M 244.5,73.5 C 245.906,73.9731 246.573,74.9731 246.5,76.5C 245.094,76.0269 244.427,75.0269 244.5,73.5 Z"/></g>
<g><path style="opacity:0.075" fill="#303b42" d="M 69.5,75.5 C 69.2503,77.674 68.2503,79.3406 66.5,80.5C 66.7497,78.326 67.7497,76.6594 69.5,75.5 Z"/></g>
<g><path style="opacity:0.098" fill="#3e464e" d="M 285.5,75.5 C 285.573,77.0269 284.906,78.0269 283.5,78.5C 283.427,76.9731 284.094,75.9731 285.5,75.5 Z"/></g>
<g><path style="opacity:0.102" fill="#323d45" d="M 149.5,76.5 C 150.906,76.9731 151.573,77.9731 151.5,79.5C 150.094,79.0269 149.427,78.0269 149.5,76.5 Z"/></g>
<g><path style="opacity:0.098" fill="#424e52" d="M 186.5,78.5 C 186.573,80.0269 185.906,81.0269 184.5,81.5C 184.427,79.9731 185.094,78.9731 186.5,78.5 Z"/></g>
<g><path style="opacity:0.125" fill="#5b646b" d="M 247.5,78.5 C 248.906,78.9731 249.573,79.9731 249.5,81.5C 248.094,81.0269 247.427,80.0269 247.5,78.5 Z"/></g>
<g><path style="opacity:0.078" fill="#303c41" d="M 66.5,80.5 C 66.573,82.0269 65.9063,83.0269 64.5,83.5C 64.427,81.9731 65.0937,80.9731 66.5,80.5 Z"/></g>
<g><path style="opacity:0.914" fill="#abb5b8" d="M 104.5,80.5 C 103,84.173 101,87.5063 98.5,90.5C 98.1924,88.076 98.5258,85.7427 99.5,83.5C 100.852,82.4825 101.852,81.1492 102.5,79.5C 103.183,79.8627 103.85,80.1961 104.5,80.5 Z"/></g>
<g><path style="opacity:0.133" fill="#47535b" d="M 282.5,80.5 C 282.573,82.0269 281.906,83.0269 280.5,83.5C 280.427,81.9731 281.094,80.9731 282.5,80.5 Z"/></g>
<g><path style="opacity:0.11" fill="#3b484e" d="M 152.5,81.5 C 153.906,81.9731 154.573,82.9731 154.5,84.5C 153.094,84.0269 152.427,83.0269 152.5,81.5 Z"/></g>
<g><path style="opacity:0.063" fill="#2f3c42" d="M 184.5,81.5 C 184.573,83.0269 183.906,84.0269 182.5,84.5C 182.427,82.9731 183.094,81.9731 184.5,81.5 Z"/></g>
<g><path style="opacity:0.098" fill="#445057" d="M 249.5,81.5 C 250.906,81.9731 251.573,82.9731 251.5,84.5C 250.094,84.0269 249.427,83.0269 249.5,81.5 Z"/></g>
<g><path style="opacity:0.008" fill="#3c4950" d="M 115.5,83.5 C 116.906,83.9731 117.573,84.9731 117.5,86.5C 116.094,86.0269 115.427,85.0269 115.5,83.5 Z"/></g>
<g><path style="opacity:0.082" fill="#2d3a42" d="M 64.5,83.5 C 64.2503,85.674 63.2503,87.3406 61.5,88.5C 61.7497,86.326 62.7497,84.6594 64.5,83.5 Z"/></g>
<g><path style="opacity:0.114" fill="#404c51" d="M 280.5,83.5 C 280.573,85.0269 279.906,86.0269 278.5,86.5C 278.427,84.9731 279.094,83.9731 280.5,83.5 Z"/></g>
<g><path style="opacity:0.943" fill="#97a1a7" d="M 319.5,81.5 C 318.331,84.5113 316.664,87.178 314.5,89.5C 314.67,88.1779 314.337,87.0113 313.5,86C 315.886,85.7165 316.552,84.7165 315.5,83C 316.901,82.5899 318.234,82.0899 319.5,81.5 Z"/></g>
<g><path style="opacity:0.09" fill="#2e3c44" d="M 154.5,84.5 C 155.906,84.9731 156.573,85.9731 156.5,87.5C 155.094,87.0269 154.427,86.0269 154.5,84.5 Z"/></g>
<g><path style="opacity:0.106" fill="#3e494f" d="M 181.5,86.5 C 181.573,88.0269 180.906,89.0269 179.5,89.5C 179.427,87.9731 180.094,86.9731 181.5,86.5 Z"/></g>
<g><path style="opacity:0.145" fill="#5b636b" d="M 252.5,86.5 C 253.906,86.9731 254.573,87.9731 254.5,89.5C 253.094,89.0269 252.427,88.0269 252.5,86.5 Z"/></g>
<g><path style="opacity:0.067" fill="#303c43" d="M 156.5,87.5 C 158.25,88.6594 159.25,90.326 159.5,92.5C 157.75,91.3406 156.75,89.674 156.5,87.5 Z"/></g>
<g><path style="opacity:0.094" fill="#2e3a3f" d="M 61.5,88.5 C 61.573,90.0269 60.9063,91.0269 59.5,91.5C 59.427,89.9731 60.0937,88.9731 61.5,88.5 Z"/></g>
<g><path style="opacity:0.004" fill="#3d464b" d="M 218.5,90.5 C 218.5,91.1667 218.5,91.8333 218.5,92.5C 217.5,91.1667 216.5,91.1667 215.5,92.5C 215.632,89.9931 216.632,89.3264 218.5,90.5 Z"/></g>
<g><path style="opacity:0.129" fill="#4d575c" d="M 277.5,88.5 C 277.573,90.0269 276.906,91.0269 275.5,91.5C 275.427,89.9731 276.094,88.9731 277.5,88.5 Z"/></g>
<g><path style="opacity:0.016" fill="#303d43" d="M 98.5,90.5 C 98.573,92.0269 97.9063,93.0269 96.5,93.5C 96.427,91.9731 97.0937,90.9731 98.5,90.5 Z"/></g>
<g><path style="opacity:0.094" fill="#313e44" d="M 179.5,89.5 C 179.573,91.0269 178.906,92.0269 177.5,92.5C 177.427,90.9731 178.094,89.9731 179.5,89.5 Z"/></g>
<g><path style="opacity:0.122" fill="#485259" d="M 254.5,89.5 C 255.906,89.9731 256.573,90.9731 256.5,92.5C 255.094,92.0269 254.427,91.0269 254.5,89.5 Z"/></g>
<g><path style="opacity:0.086" fill="#2b393e" d="M 59.5,91.5 C 58.6167,94.7043 56.9501,97.3709 54.5,99.5C 55.3833,96.2957 57.0499,93.6291 59.5,91.5 Z"/></g>
<g><path style="opacity:0.078" fill="#3d484e" d="M 275.5,91.5 C 275.573,93.0269 274.906,94.0269 273.5,94.5C 273.427,92.9731 274.094,91.9731 275.5,91.5 Z"/></g>
<g><path style="opacity:0.082" fill="#2d3c45" d="M 159.5,92.5 C 160.906,92.9731 161.573,93.9731 161.5,95.5C 160.094,95.0269 159.427,94.0269 159.5,92.5 Z"/></g>
<g><path style="opacity:0.824" fill="#bec7ca" d="M 227.5,106.5 C 224.015,102.21 221.015,97.543 218.5,92.5C 218.5,91.8333 218.5,91.1667 218.5,90.5C 221.639,89.1564 221.972,89.6564 219.5,92C 222.294,94.5601 224.627,97.5601 226.5,101C 226.167,101.333 225.833,101.667 225.5,102C 226.582,103.33 227.249,104.83 227.5,106.5 Z"/></g>
<g><path style="opacity:0.067" fill="#354148" d="M 256.5,92.5 C 257.906,92.9731 258.573,93.9731 258.5,95.5C 257.094,95.0269 256.427,94.0269 256.5,92.5 Z"/></g>
<g><path style="opacity:0.086" fill="#3a474c" d="M 176.5,94.5 C 176.573,96.0269 175.906,97.0269 174.5,97.5C 174.427,95.9731 175.094,94.9731 176.5,94.5 Z"/></g>
<g><path style="opacity:0.004" fill="#464f56" d="M 121.5,93.5 C 123.796,94.733 125.13,96.733 125.5,99.5C 123.684,97.8816 122.351,95.8816 121.5,93.5 Z"/></g>
<g><path style="opacity:0.055" fill="#2d3840" d="M 258.5,95.5 C 259.906,95.9731 260.573,96.9731 260.5,98.5C 259.094,98.0269 258.427,97.0269 258.5,95.5 Z"/></g>
<g><path style="opacity:0.075" fill="#4a545a" d="M 272.5,96.5 C 272.573,98.0269 271.906,99.0269 270.5,99.5C 270.427,97.9731 271.094,96.9731 272.5,96.5 Z"/></g>
<g><path style="opacity:0.008" fill="#334044" d="M 93.5,98.5 C 93.573,100.027 92.9063,101.027 91.5,101.5C 91.427,99.9731 92.0937,98.9731 93.5,98.5 Z"/></g>
<g><path style="opacity:0.082" fill="#384248" d="M 162.5,97.5 C 163.906,97.9731 164.573,98.9731 164.5,100.5C 163.094,100.027 162.427,99.0269 162.5,97.5 Z"/></g>
<g><path style="opacity:0.863" fill="#788289" d="M 125.5,99.5 C 127.824,99.8773 128.491,100.877 127.5,102.5C 126.094,102.027 125.427,101.027 125.5,99.5 Z"/></g>
<g><path style="opacity:0.857" fill="#a1abaf" d="M 211.5,99.5 C 209.316,103.881 206.65,107.881 203.5,111.5C 203.196,110.85 202.863,110.183 202.5,109.5C 204.282,106.981 205.782,104.315 207,101.5C 208.11,99.9632 209.61,99.2965 211.5,99.5 Z"/></g>
<g><path style="opacity:0.078" fill="#28363b" d="M 54.5,99.5 C 53.6167,102.704 51.9501,105.371 49.5,107.5C 50.3833,104.296 52.0499,101.629 54.5,99.5 Z"/></g>
<g><path style="opacity:0.929" fill="#aab3b6" d="M 311.5,94.5 C 309.281,99.7091 306.281,104.376 302.5,108.5C 302.082,107.778 301.416,107.278 300.5,107C 301.624,106.751 302.624,106.251 303.5,105.5C 302.557,103.53 303.224,102.03 305.5,101C 305.975,97.996 307.975,95.8293 311.5,94.5 Z"/></g>
<g><path style="opacity:0.863" fill="#89969a" d="M 173.5,99.5 C 173.408,101.848 172.408,103.514 170.5,104.5C 170.75,102.326 171.75,100.659 173.5,99.5 Z"/></g>
<g><path style="opacity:0.133" fill="#4e5860" d="M 269.5,101.5 C 269.573,103.027 268.906,104.027 267.5,104.5C 267.427,102.973 268.094,101.973 269.5,101.5 Z"/></g>
<g><path style="opacity:0.008" fill="#2c383e" d="M 90.5,103.5 C 90.573,105.027 89.9063,106.027 88.5,106.5C 88.427,104.973 89.0937,103.973 90.5,103.5 Z"/></g>
<g><path style="opacity:0.129" fill="#434b52" d="M 165.5,102.5 C 166.906,102.973 167.573,103.973 167.5,105.5C 166.094,105.027 165.427,104.027 165.5,102.5 Z"/></g>
<g><path style="opacity:0.161" fill="#636f77" d="M 262.5,102.5 C 263.906,102.973 264.573,103.973 264.5,105.5C 263.094,105.027 262.427,104.027 262.5,102.5 Z"/></g>
<g><path style="opacity:0.224" fill="#515a5c" d="M 170.5,104.5 C 169.86,107.682 168.86,108.015 167.5,105.5C 168.609,105.443 169.609,105.11 170.5,104.5 Z"/></g>
<g><path style="opacity:0.224" fill="#535b62" d="M 267.5,104.5 C 266.86,107.682 265.86,108.015 264.5,105.5C 265.609,105.443 266.609,105.11 267.5,104.5 Z"/></g>
<g><path style="opacity:0.027" fill="#354147" d="M 88.5,106.5 C 88.573,108.027 87.9063,109.027 86.5,109.5C 86.427,107.973 87.0937,106.973 88.5,106.5 Z"/></g>
<g><path style="opacity:0.09" fill="#2a383f" d="M 49.5,107.5 C 49.2503,109.674 48.2503,111.341 46.5,112.5C 46.7497,110.326 47.7497,108.659 49.5,107.5 Z"/></g>
<g><path style="opacity:0.024" fill="#354349" d="M 85.5,111.5 C 85.573,113.027 84.9063,114.027 83.5,114.5C 83.427,112.973 84.0937,111.973 85.5,111.5 Z"/></g>
<g><path style="opacity:0.107" fill="#3e4a50" d="M 46.5,112.5 C 58.4547,114.48 70.788,115.146 83.5,114.5C 72.648,115.209 61.648,115.876 50.5,116.5C 48.8653,115.954 47.1986,115.62 45.5,115.5C 45.2627,114.209 45.596,113.209 46.5,112.5 Z"/></g>
<g><path style="opacity:0.047" fill="#4e5860" d="M 131.5,109.5 C 133.796,110.733 135.13,112.733 135.5,115.5C 133.684,113.882 132.351,111.882 131.5,109.5 Z"/></g>
<g><path style="opacity:0.876" fill="#aab3b7" d="M 298.5,115.5 C 297.331,118.511 295.664,121.178 293.5,123.5C 293.338,121.473 293.505,119.473 294,117.5C 294.939,114.985 296.439,114.318 298.5,115.5 Z"/></g>
<g><path style="opacity:0.063" fill="#384349" d="M 138.5,120.5 C 139.906,120.973 140.573,121.973 140.5,123.5C 139.094,123.027 138.427,122.027 138.5,120.5 Z"/></g>
<g><path style="opacity:0.047" fill="#37454b" d="M 236.5,121.5 C 237.906,121.973 238.573,122.973 238.5,124.5C 237.094,124.027 236.427,123.027 236.5,121.5 Z"/></g>
<g><path style="opacity:0.008" fill="#2b373e" d="M 141.5,125.5 C 142.906,125.973 143.573,126.973 143.5,128.5C 142.094,128.027 141.427,127.027 141.5,125.5 Z"/></g>
<g><path style="opacity:0.888" fill="#aeb7bb" d="M 194.5,126.5 C 192.554,130.439 190.221,134.106 187.5,137.5C 187.001,132.004 189.334,128.338 194.5,126.5 Z"/></g>
<g><path style="opacity:0.067" fill="#364346" d="M 143.5,128.5 C 144.906,128.973 145.573,129.973 145.5,131.5C 144.094,131.027 143.427,130.027 143.5,128.5 Z"/></g>
<g><path style="opacity:0.012" fill="#3e4b52" d="M 241.5,129.5 C 242.906,129.973 243.573,130.973 243.5,132.5C 242.094,132.027 241.427,131.027 241.5,129.5 Z"/></g>
<g><path style="opacity:0.008" fill="#29363d" d="M 146.5,133.5 C 147.906,133.973 148.573,134.973 148.5,136.5C 147.094,136.027 146.427,135.027 146.5,133.5 Z"/></g>
<g><path style="opacity:0.008" fill="#333e43" d="M 244.5,134.5 C 245.906,134.973 246.573,135.973 246.5,137.5C 245.094,137.027 244.427,136.027 244.5,134.5 Z"/></g>
<g><path style="opacity:1" fill="#e21922" d="M 102.5,141.5 C 100.808,143.205 99.4746,145.205 98.5,147.5C 97.8333,147.833 97.1667,148.167 96.5,148.5C 97.8333,145.5 99.1667,142.5 100.5,139.5C 78.4975,139.333 56.4975,139.5 34.5,140C 33.0692,140.465 31.9025,141.299 31,142.5C 30.1614,145.674 28.4947,148.341 26,150.5C 24.7114,153.351 24.2114,156.351 24.5,159.5C 21.3171,159.929 18.9838,161.596 17.5,164.5C 40.5,165.833 63.5,165.833 86.5,164.5C 86.8793,162.787 87.8793,161.787 89.5,161.5C 88.5592,163.05 87.8925,164.716 87.5,166.5C 63.5,166.5 39.5,166.5 15.5,166.5C 15.5,165.5 15.5,164.5 15.5,163.5C 19.2531,156.99 23.2531,150.656 27.5,144.5C 29.3031,142.519 30.9697,140.352 32.5,138C 55.831,137.5 79.1643,137.333 102.5,137.5C 102.5,138.833 102.5,140.167 102.5,141.5 Z"/></g>
<g><path style="opacity:1" fill="#fc0e17" d="M 96.5,148.5 C 94.3569,152.924 92.0235,157.257 89.5,161.5C 87.8793,161.787 86.8793,162.787 86.5,164.5C 63.5,165.833 40.5,165.833 17.5,164.5C 18.9838,161.596 21.3171,159.929 24.5,159.5C 24.2114,156.351 24.7114,153.351 26,150.5C 28.4947,148.341 30.1614,145.674 31,142.5C 31.9025,141.299 33.0692,140.465 34.5,140C 56.4975,139.5 78.4975,139.333 100.5,139.5C 99.1667,142.5 97.8333,145.5 96.5,148.5 Z"/></g>
<g><path style="opacity:0.082" fill="#3b494f" d="M 246.5,137.5 C 247.906,137.973 248.573,138.973 248.5,140.5C 247.094,140.027 246.427,139.027 246.5,137.5 Z"/></g>
<g><path style="opacity:0.016" fill="#2d3942" d="M 151.5,141.5 C 152.906,141.973 153.573,142.973 153.5,144.5C 152.094,144.027 151.427,143.027 151.5,141.5 Z"/></g>
<g><path style="opacity:0.012" fill="#2b3840" d="M 249.5,142.5 C 250.906,142.973 251.573,143.973 251.5,145.5C 250.094,145.027 249.427,144.027 249.5,142.5 Z"/></g>
<g><path style="opacity:0.086" fill="#343f48" d="M 153.5,144.5 C 155.25,145.659 156.25,147.326 156.5,149.5C 154.75,148.341 153.75,146.674 153.5,144.5 Z"/></g>
<g><path style="opacity:0.016" fill="#27333c" d="M 252.5,147.5 C 253.906,147.973 254.573,148.973 254.5,150.5C 253.094,150.027 252.427,149.027 252.5,147.5 Z"/></g>
<g><path style="opacity:0.09" fill="#313f46" d="M 156.5,149.5 C 157.906,149.973 158.573,150.973 158.5,152.5C 157.094,152.027 156.427,151.027 156.5,149.5 Z"/></g>
<g><path style="opacity:0.031" fill="#2c383f" d="M 254.5,150.5 C 255.906,150.973 256.573,151.973 256.5,153.5C 255.094,153.027 254.427,152.027 254.5,150.5 Z"/></g>
<g><path style="opacity:0.063" fill="#323e44" d="M 277.5,149.5 C 277.573,151.027 276.906,152.027 275.5,152.5C 275.427,150.973 276.094,149.973 277.5,149.5 Z"/></g>
<g><path style="opacity:0.055" fill="#2b3940" d="M 178.5,152.5 C 178.573,154.027 177.906,155.027 176.5,155.5C 176.427,153.973 177.094,152.973 178.5,152.5 Z"/></g>
<g><path style="opacity:0.02" fill="#2f3b41" d="M 159.5,154.5 C 161.262,155.262 162.262,156.596 162.5,158.5C 160.738,157.738 159.738,156.404 159.5,154.5 Z"/></g>
<g><path style="opacity:0.02" fill="#25333b" d="M 274.5,154.5 C 274.573,156.027 273.906,157.027 272.5,157.5C 272.427,155.973 273.094,154.973 274.5,154.5 Z"/></g>
<g><path style="opacity:0.58" fill="#8e1e28" d="M 98.5,147.5 C 97.8333,149.5 97.1667,151.5 96.5,153.5C 94.1892,157.34 92.0226,161.34 90,165.5C 89.2917,166.381 88.4584,167.047 87.5,167.5C 87.5,167.167 87.5,166.833 87.5,166.5C 87.8925,164.716 88.5592,163.05 89.5,161.5C 92.0235,157.257 94.3569,152.924 96.5,148.5C 97.1667,148.167 97.8333,147.833 98.5,147.5 Z"/></g>
<g><path style="opacity:0.016" fill="#26353d" d="M 257.5,155.5 C 258.906,155.973 259.573,156.973 259.5,158.5C 258.094,158.027 257.427,157.027 257.5,155.5 Z"/></g>
<g><path style="opacity:0.067" fill="#29343a" d="M 175.5,157.5 C 175.573,159.027 174.906,160.027 173.5,160.5C 173.427,158.973 174.094,157.973 175.5,157.5 Z"/></g>
<g><path style="opacity:0.071" fill="#2c3841" d="M 259.5,158.5 C 261.25,159.659 262.25,161.326 262.5,163.5C 260.75,162.341 259.75,160.674 259.5,158.5 Z"/></g>
<g><path style="opacity:0.016" fill="#28373e" d="M 272.5,157.5 C 272.25,159.674 271.25,161.341 269.5,162.5C 269.75,160.326 270.75,158.659 272.5,157.5 Z"/></g>
<g><path style="opacity:0.071" fill="#2a333c" d="M 163.5,160.5 C 164.906,160.973 165.573,161.973 165.5,163.5C 164.094,163.027 163.427,162.027 163.5,160.5 Z"/></g>
<g><path style="opacity:0.02" fill="#253238" d="M 173.5,160.5 C 173.25,162.674 172.25,164.341 170.5,165.5C 170.75,163.326 171.75,161.659 173.5,160.5 Z"/></g>
<g><path style="opacity:0.027" fill="#27343b" d="M 269.5,162.5 C 269.573,164.027 268.906,165.027 267.5,165.5C 267.427,163.973 268.094,162.973 269.5,162.5 Z"/></g>
<g><path style="opacity:0.02" fill="#242f36" d="M 262.5,163.5 C 263.906,163.973 264.573,164.973 264.5,166.5C 263.094,166.027 262.427,165.027 262.5,163.5 Z"/></g>
<g><path style="opacity:0.661" fill="#bc2832" d="M 15.5,163.5 C 15.5,164.5 15.5,165.5 15.5,166.5C 39.5,166.5 63.5,166.5 87.5,166.5C 87.5,166.833 87.5,167.167 87.5,167.5C 87.1667,167.5 86.8333,167.5 86.5,167.5C 62.5,167.5 38.5,167.5 14.5,167.5C 14.2322,165.901 14.5655,164.568 15.5,163.5 Z"/></g>
<g><path style="opacity:0.102" fill="#3d4b52" d="M 166.5,165.5 C 167.833,166.833 169.167,166.833 170.5,165.5C 170.38,166.586 169.713,167.253 168.5,167.5C 167.287,167.253 166.62,166.586 166.5,165.5 Z"/></g>
<g><path style="opacity:0.027" fill="#36444c" d="M 267.5,165.5 C 266.947,167.552 265.947,167.885 264.5,166.5C 265.609,166.443 266.609,166.11 267.5,165.5 Z"/></g>
<g><path style="opacity:0.059" fill="#5a1520" d="M 96.5,153.5 C 97.1667,151.5 97.8333,149.5 98.5,147.5C 99.4746,145.205 100.808,143.205 102.5,141.5C 104.213,140.365 104.88,138.698 104.5,136.5C 80.1644,136.333 55.8311,136.5 31.5,137C 29.5056,139.158 28.1723,141.658 27.5,144.5C 23.2531,150.656 19.2531,156.99 15.5,163.5C 14.5655,164.568 14.2322,165.901 14.5,167.5C 38.5,167.5 62.5,167.5 86.5,167.5C 62.3368,168.663 38.0035,168.83 13.5,168C 12.5363,165.353 13.0363,162.853 15,160.5C 20.5006,152.836 25.5006,144.836 30,136.5C 32.9914,135.148 36.1581,134.481 39.5,134.5C 61.519,134.256 83.519,134.756 105.5,136C 106.672,137.868 106.505,139.702 105,141.5C 102.304,145.68 99.4702,149.68 96.5,153.5 Z"/></g>
<g><path style="opacity:0.875" fill="#b42933" d="M 102.5,141.5 C 102.5,140.167 102.5,138.833 102.5,137.5C 79.1643,137.333 55.831,137.5 32.5,138C 30.9697,140.352 29.3031,142.519 27.5,144.5C 28.1723,141.658 29.5056,139.158 31.5,137C 55.8311,136.5 80.1644,136.333 104.5,136.5C 104.88,138.698 104.213,140.365 102.5,141.5 Z"/></g>
</svg>
